<svg width="528" 
height="512" 
viewBox="0 0 528 512" 
xmlns="http://www.w3.org/2000/svg">
<link xmlns="" 
type="text/css" 
rel="stylesheet" 
id="dark-mode-custom-link"/>
<link xmlns="" type="text/css" 
rel="stylesheet" 
id="dark-mode-general-link"/>
<style xmlns="" lang="en" type="text/css" 
id="dark-mode-custom-style"/><style xmlns="" 
lang="en" type="text/css" id="dark-mode-native-style"/>
<title>pass</title>
<path fill="#42d823" d="M264 456Q210 456 164 429 118 402 91 356 64 310 64 256 64 202 91 156 118
 110 164 83 210 56 264 56 318 56 364 83 410 110 437 156 464 202 464 256 464 310 
 437 356 410 402 364 429 318 456 264 456ZM368 192L332 160 231 282 178 229 146 261
  235 350 368 192Z"/></svg>